# xmcd
#
# Track frame offsets: 
#        300
#        16006
#        28730
#        44556
#        55450
#        67054
#        82043
#        99855
#        118273
#        133002
#        145727
#        162389
#
# Disc length: 2372 seconds
#
# Revision: 1
# Processed by: cddbd v1.5.1PL0 Copyright (c) Steve Scherf et al.
# Submitted via: ExactAudioCopy v0.95b2
#
DISCID=ab09400c
DTITLE=TOMEU PENYA - UNA ACLUCADA D'ULL
DYEAR=1995
DGENRE=Country
TTITLE0=UNA ACLUCADA D'ULL
TTITLE1=POLVETS MAGICS
TTITLE2=NINGU NO ET FA OMBRA
TTITLE3=POP ROCK, A COP UN POC DE TOT
TTITLE4=ABANS QUE COMENÇIS A PLORAR
TTITLE5=UNA NIT D'ESTIU
TTITLE6=ILLES DINS UN RIU (GIBB)
TTITLE7=MARCATS PER ES ROCK'N' ROLL
TTITLE8=GITANA
TTITLE9=QUE PASSA AQUI?
TTITLE10=T'ESTIM AIXI
TTITLE11=NINGU NO ET FA OMBRA (Versio instrumental)
EXTD=YEAR: 1995
EXTT0=
EXTT1=
EXTT2=
EXTT3=
EXTT4=
EXTT5=
EXTT6=
EXTT7=
EXTT8=
EXTT9=
EXTT10=
EXTT11=
PLAYORDER=
